<svg xmlns="http://www.w3.org/2000/svg" viewBox="0 0 32 32">
  <title>VESTA</title>
  <defs>
    <linearGradient id="solana" x1="0" y1="32" x2="32" y2="0" gradientUnits="userSpaceOnUse">
      <stop offset="0" stop-color="#9945FF"/>
      <stop offset="1" stop-color="#14F195"/>
    </linearGradient>
  </defs>
  <path fill="url(#solana)" d="M16 2c1 5-2 7-4 10-2 2.7-3 5-3 8a9 9 0 0 0 18 0c0-2.6-.8-4.8-2.4-7-.5 1.8-1.4 3-2.9 3.7.8-4.4-.9-10.5-5.7-14.7Zm.2 13.8c2 2 2.9 3.6 2.9 5.5a3.6 3.6 0 1 1-7.2 0c0-1.9.7-3.3 2.2-5 .7-.8 1.4-1.6 1.8-2.6.2.7.3 1.4.3 2.1Z"/>
</svg>
